# xmcd
#
# Track frame offsets: 
#        150
#        44553
#        88444
#        113934
#        143701
#        167311
#        208465
#        240240
#
# Disc length: 3505 seconds
#
# Revision: 0
# Processed by: cddbd v1.5.2PL0 Copyright (c) Steve Scherf et al.
# Submitted via: ExactAudioCopy v1.0b1
#
DISCID=6f0daf08
DTITLE=Twilight - Monument To Time End
DYEAR=2010
DGENRE=Black Metal
TTITLE0=The Cryptic Ascension
TTITLE1=Fall Behind Eternity
TTITLE2=8,000 Years
TTITLE3=Red Fields
TTITLE4=Convulsions In Wells Of Fever
TTITLE5=Decaying Observer
TTITLE6=The Catastrophe Exhibition
TTITLE7=Negative Signal Omega
EXTD=
EXTT0=
EXTT1=
EXTT2=
EXTT3=
EXTT4=
EXTT5=
EXTT6=
EXTT7=
PLAYORDER=
